<?xml version="1.0" encoding="UTF-8" standalone="no"?>
<!-- Created with Inkscape (http://www.inkscape.org/) -->

<svg
   xmlns:osb="http://www.openswatchbook.org/uri/2009/osb"
   xmlns:dc="http://purl.org/dc/elements/1.1/"
   xmlns:cc="http://creativecommons.org/ns#"
   xmlns:rdf="http://www.w3.org/1999/02/22-rdf-syntax-ns#"
   xmlns:svg="http://www.w3.org/2000/svg"
   xmlns="http://www.w3.org/2000/svg"
   xmlns:xlink="http://www.w3.org/1999/xlink"
   xmlns:sodipodi="http://sodipodi.sourceforge.net/DTD/sodipodi-0.dtd"
   xmlns:inkscape="http://www.inkscape.org/namespaces/inkscape"
   width="1240"
   height="768"
   viewBox="0 0 328.08332 203.2"
   version="1.1"
   id="svg849"
   inkscape:version="0.92.4 (5da689c313, 2019-01-14)"
   sodipodi:docname="fondoHome.svg"
   inkscape:export-filename="C:\Users\KATHIA\Cal\kalkulus\src\imagenes\home.png"
   inkscape:export-xdpi="96"
   inkscape:export-ydpi="96">
  <defs
     id="defs843">
    <linearGradient
       id="linearGradient901"
       osb:paint="solid">
      <stop
         style="stop-color:#e0e0d0;stop-opacity:1;"
         offset="0"
         id="stop899" />
    </linearGradient>
    <linearGradient
       id="linearGradient895"
       osb:paint="solid">
      <stop
         style="stop-color:#f1fee3;stop-opacity:1;"
         offset="0"
         id="stop893" />
    </linearGradient>
    <linearGradient
       inkscape:collect="always"
       xlink:href="#linearGradient895"
       id="linearGradient897"
       x1="165.79303"
       y1="-43.483076"
       x2="217.68474"
       y2="-37.111574"
       gradientUnits="userSpaceOnUse"
       gradientTransform="matrix(0.9986831,0.02594454,0.02578615,0.99869317,2.9846277e-8,0)" />
    <linearGradient
       inkscape:collect="always"
       xlink:href="#linearGradient901"
       id="linearGradient903"
       x1="165.79303"
       y1="-43.483074"
       x2="217.68474"
       y2="-37.111572"
       gradientUnits="userSpaceOnUse"
       gradientTransform="matrix(0.9986831,0.02594454,0.02578615,0.99869317,2.9846277e-8,0)" />
  </defs>
  <sodipodi:namedview
     id="base"
     pagecolor="#ffffff"
     bordercolor="#666666"
     borderopacity="1.0"
     inkscape:pageopacity="0.0"
     inkscape:pageshadow="2"
     inkscape:zoom="1.465625"
     inkscape:cx="649.84983"
     inkscape:cy="349.56228"
     inkscape:document-units="px"
     inkscape:current-layer="layer4"
     showgrid="false"
     units="px"
     inkscape:window-width="1366"
     inkscape:window-height="705"
     inkscape:window-x="-8"
     inkscape:window-y="-8"
     inkscape:window-maximized="1" />
  <metadata
     id="metadata846">
    <rdf:RDF>
      <cc:Work
         rdf:about="">
        <dc:format>image/svg+xml</dc:format>
        <dc:type
           rdf:resource="http://purl.org/dc/dcmitype/StillImage" />
        <dc:title />
      </cc:Work>
    </rdf:RDF>
  </metadata>
  <g
     inkscape:label="Capa 1"
     inkscape:groupmode="layer"
     id="layer1"
     transform="translate(0,-93.799982)">
    <rect
       style="opacity:0.549;fill:#000000;fill-opacity:0.21176471;stroke:#f1fee3;stroke-width:0;stroke-linecap:square;stroke-linejoin:miter;stroke-miterlimit:4;stroke-dasharray:none;stroke-dashoffset:0;stroke-opacity:0.96296297;paint-order:markers stroke fill"
       id="rect1427"
       width="203.2"
       height="328.08331"
       x="93.79998"
       y="-328.08331"
       transform="rotate(90)" />
    <rect
       style="opacity:1;fill:#4328b8;fill-opacity:1;stroke:none;stroke-width:0.45395622;stroke-linecap:square;stroke-linejoin:miter;stroke-miterlimit:4;stroke-dasharray:none;stroke-dashoffset:0;stroke-opacity:0.96296297;paint-order:markers stroke fill"
       id="rect1488-3-7"
       width="24.727337"
       height="23.922615"
       x="214.45691"
       y="69.418556"
       transform="matrix(0.7122425,0.70193351,-0.67768302,0.73535417,0,1.1143528e-6)"
       ry="0"
       rx="0.23520648"
       inkscape:export-filename="C:\Users\KATHIA\Cal\kalkulus\src\Componentes\imagenes\home.png"
       inkscape:export-xdpi="70.271591"
       inkscape:export-ydpi="70.271591" />
    <rect
       style="opacity:1;fill:#f54b24;fill-opacity:1;stroke:none;stroke-width:0.43160483;stroke-linecap:square;stroke-linejoin:miter;stroke-miterlimit:4;stroke-dasharray:none;stroke-dashoffset:0;stroke-opacity:0.96296297;paint-order:markers stroke fill"
       id="rect1488-3-7-1"
       width="23.528591"
       height="22.726614"
       x="190.56778"
       y="28.059431"
       transform="matrix(0.72377866,0.69003222,-0.68975828,0.72403971,0,0)"
       ry="0"
       rx="0.223804"
       inkscape:export-filename="C:\Users\KATHIA\Cal\kalkulus\src\Componentes\imagenes\home.png"
       inkscape:export-xdpi="70.271591"
       inkscape:export-ydpi="70.271591" />
    <rect
       style="opacity:1;fill:#1c1c42;fill-opacity:1;stroke:none;stroke-width:0.3187196;stroke-linecap:square;stroke-linejoin:miter;stroke-miterlimit:4;stroke-dasharray:none;stroke-dashoffset:0;stroke-opacity:0.96296297;paint-order:markers stroke fill"
       id="rect1488-3-7-6"
       width="17.336178"
       height="16.819857"
       x="181.70932"
       y="62.090027"
       transform="matrix(0.69104766,0.72280919,-0.65564544,0.75506891,0,0)"
       ry="0"
       rx="0.16490173"
       inkscape:export-filename="C:\Users\KATHIA\Cal\kalkulus\src\Componentes\imagenes\home.png"
       inkscape:export-xdpi="70.271591"
       inkscape:export-ydpi="70.271591" />
    <rect
       style="opacity:1;fill:#4328b8;fill-opacity:1;stroke:none;stroke-width:0.34328493;stroke-linecap:square;stroke-linejoin:miter;stroke-miterlimit:4;stroke-dasharray:none;stroke-dashoffset:0;stroke-opacity:0.96296297;paint-order:markers stroke fill"
       id="rect1488-3-7-6-2"
       width="18.668926"
       height="18.119583"
       x="320.87186"
       y="-32.178753"
       transform="matrix(0.6882527,0.72547103,-0.65275329,0.75757055,0,0)"
       ry="0"
       rx="0.17757884"
       inkscape:export-filename="C:\Users\KATHIA\Cal\kalkulus\src\Componentes\imagenes\home.png"
       inkscape:export-xdpi="70.271591"
       inkscape:export-ydpi="70.271591" />
    <rect
       style="opacity:1;fill:#f54b24;fill-opacity:1;stroke:none;stroke-width:0.17414117;stroke-linecap:square;stroke-linejoin:miter;stroke-miterlimit:4;stroke-dasharray:none;stroke-dashoffset:0;stroke-opacity:0.96296297;paint-order:markers stroke fill"
       id="rect1488-3-7-6-2-8"
       width="9.5024185"
       height="9.1606636"
       x="209.82478"
       y="-16.003452"
       transform="matrix(0.73758126,0.67525839,-0.70428286,0.70991947,0,0)"
       ry="0"
       rx="0.090387009"
       inkscape:export-filename="C:\Users\KATHIA\Cal\kalkulus\src\Componentes\imagenes\home.png"
       inkscape:export-xdpi="70.271591"
       inkscape:export-ydpi="70.271591" />
    <rect
       style="opacity:1;fill:#ffd646;fill-opacity:1;stroke:#f1fee3;stroke-width:0.18369462;stroke-linecap:square;stroke-linejoin:miter;stroke-miterlimit:4;stroke-dasharray:none;stroke-dashoffset:0;stroke-opacity:0.96296297;paint-order:markers stroke fill"
       id="rect1488-3-7-6-2-8-0"
       width="10.043804"
       height="9.6439095"
       x="270.6853"
       y="97.487747"
       transform="matrix(0.76498972,0.64404249,-0.73338265,0.67981607,0,0)"
       ry="0"
       rx="0.095536657"
       inkscape:export-filename="C:\Users\KATHIA\Cal\kalkulus\src\Componentes\imagenes\home.png"
       inkscape:export-xdpi="70.271591"
       inkscape:export-ydpi="70.271591" />
    <rect
       style="opacity:1;fill:#ffd646;fill-opacity:1;stroke:none;stroke-width:0.24935231;stroke-linecap:square;stroke-linejoin:miter;stroke-miterlimit:4;stroke-dasharray:none;stroke-dashoffset:0;stroke-opacity:0.96296297;paint-order:markers stroke fill"
       id="rect1488-3-7-6-2-8-0-5"
       width="13.596375"
       height="13.126901"
       x="195.16751"
       y="6.9261265"
       transform="matrix(0.72706556,0.68656804,-0.69320944,0.72073621,0,0)"
       ry="0"
       rx="0.12932871"
       inkscape:export-filename="C:\Users\KATHIA\Cal\kalkulus\src\Componentes\imagenes\home.png"
       inkscape:export-xdpi="70.271591"
       inkscape:export-ydpi="70.271591" />
    <rect
       style="opacity:1;fill:#1c1c42;fill-opacity:1;stroke:none;stroke-width:0.48332429;stroke-linecap:square;stroke-linejoin:miter;stroke-miterlimit:4;stroke-dasharray:none;stroke-dashoffset:0;stroke-opacity:0.96296297;paint-order:markers stroke fill"
       id="rect1488-3-7-6-2-8-0-5-5"
       width="26.290823"
       height="25.505367"
       x="276.98969"
       y="-29.466028"
       transform="matrix(0.69177035,0.72211757,-0.6563938,0.75441844,0,0)"
       ry="0"
       rx="0.25007829"
       inkscape:export-filename="C:\Users\KATHIA\Cal\kalkulus\src\Componentes\imagenes\home.png"
       inkscape:export-xdpi="70.271591"
       inkscape:export-ydpi="70.271591" />
    <rect
       style="opacity:1;fill:#1c1c42;fill-opacity:1;stroke:none;stroke-width:0.84058923;stroke-linecap:square;stroke-linejoin:miter;stroke-miterlimit:4;stroke-dasharray:none;stroke-dashoffset:0;stroke-opacity:0.96296297;paint-order:markers stroke fill"
       id="rect1488-3-0"
       width="33.857826"
       height="39.698334"
       x="273.64554"
       y="43.508095"
       transform="matrix(0.7203648,0.69359538,-0.66010817,0.75117055,0,0)"
       ry="0"
       rx="0.43436974"
       inkscape:export-filename="C:\Users\KATHIA\Cal\kalkulus\src\Componentes\imagenes\home.png"
       inkscape:export-xdpi="70.271591"
       inkscape:export-ydpi="70.271591" />
    <flowRoot
       xml:space="preserve"
       id="flowRoot1667"
       style="fill:black;fill-opacity:1;stroke:none;font-family:Jokerman;font-style:normal;font-weight:normal;font-size:48px;line-height:0px;letter-spacing:0px;word-spacing:0px;-inkscape-font-specification:Jokerman;font-stretch:normal;font-variant:normal;text-anchor:end;text-align:end;writing-mode:lr;font-variant-ligatures:normal;font-variant-caps:normal;font-variant-numeric:normal;font-feature-settings:normal"><flowRegion
         id="flowRegion1669"
         style="-inkscape-font-specification:Jokerman;font-family:Jokerman;font-weight:normal;font-style:normal;font-stretch:normal;font-variant:normal;"><rect
           id="rect1671"
           width="187.88837"
           height="58.588848"
           x="541.44177"
           y="382.12173"
           style="-inkscape-font-specification:Jokerman;font-family:Jokerman;font-weight:normal;font-style:normal;font-stretch:normal;font-variant:normal;" /></flowRegion><flowPara
         id="flowPara1673" /></flowRoot>    <text
       xml:space="preserve"
       style="font-style:normal;font-variant:normal;font-weight:normal;font-stretch:normal;font-size:4.23333311px;line-height:0px;font-family:Papyrus;-inkscape-font-specification:Papyrus;font-variant-ligatures:normal;font-variant-caps:normal;font-variant-numeric:normal;font-feature-settings:normal;text-align:end;letter-spacing:0px;word-spacing:0px;writing-mode:lr-tb;text-anchor:end;fill:#000000;fill-opacity:1;stroke:none;stroke-width:0.26458332;"
       x="145.92915"
       y="202.38657"
       id="text1677"><tspan
         sodipodi:role="line"
         id="tspan1675"
         x="145.92915"
         y="203.29845"
         style="stroke-width:0.26458332;-inkscape-font-specification:Papyrus;font-family:Papyrus;font-weight:normal;font-style:normal;font-stretch:normal;font-variant:normal;" /></text>
  </g>
  <g
     inkscape:groupmode="layer"
     id="layer2"
     inkscape:label="Capa 2">
    <rect
       style="opacity:1;fill:#4328b8;fill-opacity:1;stroke:none;stroke-width:0.85414326;stroke-linecap:square;stroke-linejoin:miter;stroke-miterlimit:4;stroke-dasharray:none;stroke-dashoffset:0;stroke-opacity:0.96296297;paint-order:markers stroke fill"
       id="rect1488-3-5"
       width="45.220787"
       height="47.893917"
       x="215.66116"
       y="-69.373795"
       transform="matrix(0.70335065,0.71084307,-0.66345327,0.74821772,0,0)"
       ry="0"
       rx="0.44194472"
       inkscape:export-filename="C:\Users\KATHIA\Cal\kalkulus\src\Componentes\imagenes\home.png"
       inkscape:export-xdpi="70.271591"
       inkscape:export-ydpi="70.271591" />
    <rect
       style="opacity:1;fill:#f54b24;fill-opacity:1;stroke:none;stroke-width:0.88035482;stroke-linecap:square;stroke-linejoin:miter;stroke-miterlimit:4;stroke-dasharray:none;stroke-dashoffset:0;stroke-opacity:0.96296297;paint-order:markers stroke fill"
       id="rect1488-3"
       width="47.921482"
       height="46.424091"
       x="166.56453"
       y="-111.88284"
       transform="matrix(0.70238206,0.71180014,-0.66740705,0.74469311,0,0)"
       ry="0"
       rx="0.45582956"
       inkscape:export-filename="C:\Users\KATHIA\Cal\kalkulus\src\Componentes\imagenes\home.png"
       inkscape:export-xdpi="70.271591"
       inkscape:export-ydpi="70.271591" />
  </g>
  <g
     inkscape:groupmode="layer"
     id="layer3"
     inkscape:label="Capa 3">
    <rect
       style="opacity:1;fill:#ffd646;fill-opacity:1;stroke:none;stroke-width:1.16453481;stroke-linecap:square;stroke-linejoin:miter;stroke-miterlimit:4;stroke-dasharray:none;stroke-dashoffset:0;stroke-opacity:0.96296297;paint-order:markers stroke fill"
       id="rect1488-1"
       width="65.970314"
       height="68.334137"
       x="148.41898"
       y="-67.109566"
       transform="matrix(0.69830085,0.71580439,-0.66316584,0.74847249,0,0)"
       ry="0"
       rx="0.60280722"
       inkscape:export-filename="C:\Users\KATHIA\Cal\kalkulus\src\Componentes\imagenes\home.png"
       inkscape:export-xdpi="70.271591"
       inkscape:export-ydpi="70.271591" />
  </g>
  <g
     inkscape:groupmode="layer"
     id="layer4"
     inkscape:label="Capa 4">
    <rect
       style="opacity:1;fill:url(#linearGradient903);fill-opacity:1;stroke:url(#linearGradient897);stroke-width:0.92074889;stroke-linecap:square;stroke-linejoin:miter;stroke-miterlimit:4;stroke-dasharray:none;stroke-dashoffset:0;stroke-opacity:0.96296297;paint-order:markers stroke fill"
       id="rect1488"
       width="52.203762"
       height="53.983624"
       x="165.71002"
       y="-63.459946"
       transform="matrix(0.71072555,0.7034694,-0.67609937,0.73681045,0,0)"
       ry="0"
       rx="0.47701457"
       inkscape:export-filename="C:\Users\KATHIA\Cal\kalkulus\src\Componentes\imagenes\home.png"
       inkscape:export-xdpi="70.271591"
       inkscape:export-ydpi="70.271591" />
    <g
       aria-label="KALKULUS "
       transform="matrix(0.32901538,0,0,0.35162493,-43.783136,-24.939388)"
       style="font-style:normal;font-variant:normal;font-weight:normal;font-stretch:normal;font-size:34.49280167px;line-height:0px;font-family:sans-serif;-inkscape-font-specification:'sans-serif, Normal';font-variant-ligatures:normal;font-variant-caps:normal;font-variant-numeric:normal;font-feature-settings:normal;text-align:end;letter-spacing:0px;word-spacing:0px;writing-mode:lr-tb;text-anchor:end;fill:#000000;fill-opacity:1;stroke:none"
       id="flowRoot1809"
       inkscape:export-filename="C:\Users\KATHIA\Cal\kalkulus\src\Componentes\imagenes\home.png"
       inkscape:export-xdpi="70.271591"
       inkscape:export-ydpi="70.271591">
      <path
         d="m 553.897,385.05341 h -4.32845 l -8.19384,-9.7412 -4.21885,3.51618 v 6.22502 h -3.33475 v -25.07802 h 3.33475 v 7.68333 3.74666 3.55664 l 12.98923,-10.141 4.4483,-0.47506 -10.59082,8.74913 z"
         id="path1873"
         inkscape:connector-curvature="0"
         sodipodi:nodetypes="ccccccccccccccc" />
      <path
         d="m 577.42553,385.05341 h -3.5537 v 0 h -15.76429 v 0 h -3.38528 l 9.12847,-25.07802 h 4.44634 z m -3.88107,-1.85683 -7.58972,-20.88826 -7.78997,20.88826 z"
         id="path1875"
         inkscape:connector-curvature="0"
         sodipodi:nodetypes="ccccccccccccc" />
      <path
         d="m 597.09721,385.05341 h -15.86534 v -25.07802 h 3.33475 v 22.11379 h 12.53059 z"
         id="path1877"
         style="" />
      <path
         d="m 643.22796,374.98178 c -0.0641,1.81796 -0.20211,3.40773 -0.60632,4.76634 -0.39299,1.34737 -1.04422,2.47018 -1.95369,3.36843 -0.86457,0.85334 -1.8751,1.4765 -3.0316,1.86949 -1.15649,0.39298 -2.50387,0.58947 -4.04212,0.58947 -1.57194,0 -2.94177,-0.20772 -4.1095,-0.62316 -1.16772,-0.41544 -2.15018,-1.02737 -2.94738,-1.8358 -0.90948,-0.92071 -1.56632,-2.03229 -1.97053,-3.33475 -0.39299,-1.30246 -0.58948,-2.90247 -0.58948,-4.80002 v -15.00639 h 3.33475 v 15.17481 c 0,1.3586 0.0898,2.43089 0.26948,3.21686 0.19087,0.78597 0.50526,1.49895 0.94316,2.13895 0.49404,0.72983 1.16211,1.28001 2.00422,1.65054 0.85334,0.37053 1.8751,0.55579 3.06528,0.55579 1.20141,0 2.22317,-0.17965 3.06528,-0.53895 0.84211,-0.37053 1.51579,-0.92632 2.02106,-1.66738 0.43789,-0.64 0.74667,-1.36983 0.92632,-2.18948 0.19088,-0.83088 0.28632,-1.85825 0.28632,-3.08212 v -5.85328 l 3.54141,-0.25779 z"
         id="path1881"
         inkscape:connector-curvature="0"
         sodipodi:nodetypes="scccscccsccscccscccsccs" />
      <path
         d="m 665.47649,385.05341 h -15.86534 v -25.07802 h 3.33475 v 22.11379 h 12.53059 z"
         id="path1883"
         style="" />
      <path
         d="m 687.69133,374.98178 c 0,0 -0.20211,3.40773 -0.60632,4.76634 -0.39298,1.34737 -1.04421,2.47018 -1.95369,3.36843 -0.86457,0.85334 -1.8751,1.4765 -3.0316,1.86949 -1.15649,0.39298 -2.50387,0.58947 -4.04212,0.58947 -1.57194,0 -2.94177,-0.20772 -4.10949,-0.62316 -1.16773,-0.41544 -2.15019,-1.02737 -2.94739,-1.8358 -0.90947,-0.92071 -1.56632,-2.03229 -1.97053,-3.33475 -0.39299,-1.30246 -0.58948,-2.90247 -0.58948,-4.80002 v -15.00639 h 3.33475 v 15.17481 c 0,1.3586 0.0898,2.43089 0.26948,3.21686 0.19088,0.78597 0.50527,1.49895 0.94316,2.13895 0.49404,0.72983 1.16211,1.28001 2.00422,1.65054 0.85334,0.37053 1.8751,0.55579 3.06528,0.55579 1.20141,0 2.22317,-0.17965 3.06528,-0.53895 0.84211,-0.37053 1.51579,-0.92632 2.02106,-1.66738 0.4379,-0.64 0.74667,-1.36983 0.92632,-2.18948 0.19088,-0.83088 0.28632,-1.85825 0.28632,-3.08212 l -0.2872,-5.58455 3.17385,0 z"
         id="path1885"
         inkscape:connector-curvature="0"
         sodipodi:nodetypes="scccscccsccscccscccsccs" />
    </g>
    <path
       style="font-style:normal;font-variant:normal;font-weight:normal;font-stretch:normal;font-size:34.49280167px;line-height:0px;font-family:sans-serif;-inkscape-font-specification:'sans-serif, Normal';font-variant-ligatures:normal;font-variant-caps:normal;font-variant-numeric:normal;font-feature-settings:normal;text-align:end;letter-spacing:0px;word-spacing:0px;writing-mode:lr-tb;text-anchor:end;fill:#000000;fill-opacity:1;stroke:none;stroke-width:0.34328058"
       d="m 131.99661,106.78954 c 0,-1.367 0,0 0,0 m 0,0 v -1.48605 l 3.56629,-3.00498 1.66007,-0.042 -4.27216,3.54453 -0.9542,0.98842 v 3e-5 0 0 0 0 -1.48605"
       id="path1873-8"
       inkscape:connector-curvature="0"
       sodipodi:nodetypes="cccccccccccccc"
       inkscape:export-filename="C:\Users\KATHIA\Cal\kalkulus\src\Componentes\imagenes\home.png"
       inkscape:export-xdpi="70.271591"
       inkscape:export-ydpi="70.271591" />
    <path
       style="font-style:normal;font-variant:normal;font-weight:normal;font-stretch:normal;font-size:34.49280167px;line-height:0px;font-family:sans-serif;-inkscape-font-specification:'sans-serif, Normal';font-variant-ligatures:normal;font-variant-caps:normal;font-variant-numeric:normal;font-feature-settings:normal;text-align:end;letter-spacing:0px;word-spacing:0px;writing-mode:lr-tb;text-anchor:end;fill:#000000;fill-opacity:1;stroke:none;stroke-width:0.34013233"
       d="m 160.57979,110.52384 h -1.42412 l -2.6959,-3.42525 -1.38807,1.23638 v 2.18887 h -1.09718 v -8.81805 h 1.09718 v 2.70165 1.31741 1.25061 l 4.27366,-3.56583 1.46356,-0.16704 -3.48454,3.07641 z"
       id="path1873-2"
       inkscape:connector-curvature="0"
       sodipodi:nodetypes="ccccccccccccccc"
       inkscape:export-filename="C:\Users\KATHIA\Cal\kalkulus\src\Componentes\imagenes\home.png"
       inkscape:export-xdpi="70.271591"
       inkscape:export-ydpi="70.271591" />
    <path
       style="font-style:normal;font-variant:normal;font-weight:normal;font-stretch:normal;font-size:34.49280167px;line-height:0px;font-family:sans-serif;-inkscape-font-specification:'sans-serif, Normal';font-variant-ligatures:normal;font-variant-caps:normal;font-variant-numeric:normal;font-feature-settings:normal;text-align:end;letter-spacing:0px;word-spacing:0px;writing-mode:lr-tb;text-anchor:end;fill:#000000;fill-opacity:1;stroke:none;stroke-width:0.34328055"
       d="m 154.61485,106.78954 c 0,-1.367 0,0 0,0 m 0,0 v -1.48605 l 3.56629,-3.00498 1.66007,-0.042 -4.27216,3.54453 -0.9542,0.98842 v 3e-5 0 0 0 0 -1.48605"
       id="path1873-8-2"
       inkscape:connector-curvature="0"
       sodipodi:nodetypes="cccccccccccccc"
       inkscape:export-filename="C:\Users\KATHIA\Cal\kalkulus\src\Componentes\imagenes\home.png"
       inkscape:export-xdpi="70.271591"
       inkscape:export-ydpi="70.271591" />
    <path
       style="fill:none;stroke:#000000;stroke-width:1.35095239;stroke-linecap:butt;stroke-linejoin:miter;stroke-miterlimit:4;stroke-dasharray:none;stroke-opacity:1"
       d="m 186.22763,101.44921 c -0.50194,0.47815 -1.45455,1.08236 -1.45455,1.08236 0,0 -1.52835,0.74868 -0.65158,2.13577 0.80218,1.30213 1.92164,1.64862 2.31478,2.69138 0.18804,0.61911 -0.60828,1.35451 -1.09892,1.74429 -0.44539,0.40749 -0.98907,0.79461 -1.37751,1.29139"
       id="path1948-6"
       inkscape:connector-curvature="0"
       sodipodi:nodetypes="cccccc"
       inkscape:export-filename="C:\Users\KATHIA\Cal\kalkulus\src\Componentes\imagenes\home.png"
       inkscape:export-xdpi="70.271591"
       inkscape:export-ydpi="70.271591" />
  </g>
</svg>
